<?xml version="1.0" encoding="UTF-8" standalone="no"?>
<svg
   version="1.0"
   width="900.000000pt"
   height="520.000000pt"
   viewBox="0 0 900.000000 520.000000"
   preserveAspectRatio="xMidYMid meet"
   id="svg6"
   sodipodi:docname="22d82c77606d817fd09c337dcf7ae32c.svg"
   xmlns:inkscape="http://www.inkscape.org/namespaces/inkscape"
   xmlns:sodipodi="http://sodipodi.sourceforge.net/DTD/sodipodi-0.dtd"
   xmlns="http://www.w3.org/2000/svg"
   xmlns:svg="http://www.w3.org/2000/svg">
  <defs
     id="defs10" />
  <sodipodi:namedview
     id="namedview8"
     pagecolor="#ffffff"
     bordercolor="#666666"
     borderopacity="1.0"
     inkscape:pageshadow="2"
     inkscape:pageopacity="0.0"
     inkscape:pagecheckerboard="0"
     inkscape:document-units="pt" />
  <g
     transform="translate(0.000000,520.000000) scale(0.100000,-0.100000)"
     fill="#000000"
     stroke="none"
     id="g4">
    <path
       d="M4450 5191 c-8 -6 -17 -8 -22 -5 -4 3 -96 -46 -205 -107 -109 -62 -306 -173 -438 -247 -132 -74 -341 -192 -465 -262 -124 -70 -376 -212 -560 -315 -417 -234 -470 -266 -495 -300 -20 -26 -20 -44 -23 -1279 l-2 -1253 27 -30 c27 -28 158 -108 1123 -683 234 -139 567 -338 740 -442 l314 -189 61 3 c56 2 71 9 220 96 88 52 268 157 400 235 132 77 321 188 420 247 99 59 299 177 445 262 146 85 342 200 435 255 94 55 190 111 213 124 24 13 50 36 58 51 12 23 14 224 14 1272 0 943 -3 1252 -12 1273 -26 61 4 42 -908 578 -129 76 -390 229 -580 340 -190 111 -403 237 -475 280 -71 42 -145 83 -164 91 -38 16 -99 18 -121 5z m295 -481 c94 -108 261 -302 371 -431 111 -129 309 -358 439 -509 l237 -275 -651 -3 c-358 -1 -944 -1 -1303 0 l-651 3 462 535 c255 294 549 633 654 754 l191 219 40 -49 c23 -26 118 -136 211 -244z m-633 43 c-22 -27 -106 -124 -187 -218 -82 -93 -214 -246 -294 -340 -80 -93 -154 -179 -164 -190 -11 -11 -107 -122 -215 -247 -107 -126 -201 -228 -207 -228 -6 0 -76 38 -156 85 -79 47 -204 120 -276 162 -73 43 -133 80 -133 83 0 3 33 23 73 44 39 21 263 147 497 279 234 131 553 312 710 400 157 88 308 173 335 189 28 15 52 28 53 28 2 0 -14 -21 -36 -47z m1140 -199 c222 -130 554 -326 738 -434 184 -109 361 -212 393 -230 31 -17 57 -35 57 -39 0 -8 -501 -321 -513 -321 -3 0 -70 75 -149 168 -197 230 -758 882 -886 1030 -30 34 -52 62 -49 62 4 0 188 -106 409 -236z m-2637 -921 c55 -33 158 -92 228 -133 70 -40 130 -76 132 -80 6 -10 -506 -1465 -521 -1479 -2 -2 -4 400 -4 893 l0 898 33 -20 c17 -11 77 -46 132 -79z m3885 -820 c0 -504 -2 -914 -4 -912 -7 7 -506 1500 -506 1513 0 6 62 48 138 94 75 45 187 113 247 151 61 38 113 70 118 70 4 1 7 -412 7 -916z m-807 620 c76 -3 137 -9 137 -14 0 -13 -186 -353 -393 -719 -291 -516 -584 -1005 -798 -1335 -47 -71 -100 -154 -118 -183 -19 -29 -37 -50 -41 -45 -18 19 -254 380 -332 508 -47 77 -173 289 -280 470 -445 754 -539 918 -659 1157 -37 75 -73 138 -80 140 -6 2 15 5 47 7 33 1 109 6 169 10 136 10 2160 13 2348 4z m-2429 -391 c93 -158 245 -417 339 -577 93 -159 227 -387 297 -505 125 -212 366 -620 443 -753 22 -37 38 -69 36 -71 -2 -2 -119 18 -259 45 -140 27 -563 106 -940 175 -377 69 -695 133 -707 140 -27 17 -29 47 -8 101 32 83 230 637 333 933 61 173 140 398 177 500 37 102 76 211 87 243 11 31 23 57 26 57 4 -1 83 -130 176 -288z m2929 -631 c169 -506 307 -926 307 -934 0 -21 5 -19 -305 -72 -407 -70 -986 -170 -1304 -226 -156 -27 -289 -49 -297 -47 -8 2 33 80 115 218 70 118 244 413 386 655 142 242 347 591 455 775 109 184 225 383 260 443 34 59 65 107 69 107 3 0 145 -414 314 -919z m-3000 -1181 c205 -38 487 -92 627 -119 140 -27 335 -64 433 -82 l177 -33 0 -333 c0 -184 -3 -332 -7 -330 -43 23 -1573 937 -1598 954 -11 7 -16 13 -12 13 4 0 175 -31 380 -70z m2982 41 c-11 -10 -293 -178 -560 -333 -99 -58 -355 -208 -570 -334 -214 -127 -411 -242 -437 -257 l-48 -28 0 339 0 338 443 77 c243 43 566 99 717 126 520 93 468 84 455 72z"
       id="path2" />
  </g>
</svg>
