<?xml version="1.0" encoding="UTF-8" standalone="no"?>
<svg
   version="1.0"
   width="920.000000pt"
   height="512.000000pt"
   viewBox="0 0 920.000000 512.000000"
   preserveAspectRatio="xMidYMid meet"
   id="svg8"
   sodipodi:docname="ff40c0d5e198e8366c8ac21a965a02bf.svg"
   xmlns:inkscape="http://www.inkscape.org/namespaces/inkscape"
   xmlns:sodipodi="http://sodipodi.sourceforge.net/DTD/sodipodi-0.dtd"
   xmlns="http://www.w3.org/2000/svg"
   xmlns:svg="http://www.w3.org/2000/svg">
  <defs
     id="defs12" />
  <sodipodi:namedview
     id="namedview10"
     pagecolor="#ffffff"
     bordercolor="#666666"
     borderopacity="1.0"
     inkscape:pageshadow="2"
     inkscape:pageopacity="0.0"
     inkscape:pagecheckerboard="0"
     inkscape:document-units="pt" />
  <g
     transform="translate(0.000000,512.000000) scale(0.100000,-0.100000)"
     fill="#000000"
     stroke="none"
     id="g6">
    <path
       d="M4316 5109 c-386 -37 -546 -189 -619 -594 -14 -75 -29 -199 -43 -357 l-5 -67 -277 -3 c-276 -3 -277 -3 -334 -30 -127 -59 -204 -171 -219 -320 -5 -46 -16 -324 -24 -618 -9 -294 -22 -737 -30 -985 -8 -247 -21 -666 -30 -930 -8 -264 -18 -559 -21 -655 -7 -187 2 -254 45 -338 35 -68 108 -139 179 -174 l67 -33 1595 0 1595 0 67 33 c114 56 195 165 219 297 10 57 8 172 -46 1815 -8 245 -21 684 -30 975 -8 292 -20 568 -25 615 -17 151 -91 259 -218 318 -57 27 -57 27 -343 30 l-286 3 -11 142 c-28 356 -93 557 -222 688 -93 94 -195 143 -370 175 -104 18 -473 27 -614 13z m584 -168 c36 -6 99 -23 140 -38 63 -22 85 -37 140 -92 55 -55 71 -80 99 -150 63 -161 89 -361 98 -752 l6 -257 -52 0 -51 0 0 157 c0 303 -27 592 -67 716 -42 132 -112 218 -216 265 -107 48 -160 55 -422 54 -273 -1 -349 -14 -448 -77 -169 -108 -216 -287 -233 -879 l-6 -236 -44 1 -44 0 0 157 c0 326 29 652 71 795 67 228 177 310 459 344 95 12 484 6 570 -8z m-35 -274 c126 -35 167 -82 205 -235 19 -77 40 -239 40 -307 l0 -35 -525 0 c-413 0 -525 3 -525 13 0 57 23 257 36 317 39 178 107 240 284 260 102 12 427 3 485 -13z m-1225 -947 c0 -144 -2 -163 -22 -201 -79 -152 24 -338 196 -356 100 -10 207 52 248 145 24 53 25 145 3 198 -12 30 -15 73 -14 206 l1 168 534 0 534 0 0 -170 c0 -146 -3 -175 -17 -197 -13 -20 -18 -48 -18 -103 0 -64 4 -82 28 -122 66 -113 199 -157 312 -104 62 29 102 68 127 125 24 53 26 142 4 195 -13 30 -16 75 -16 208 l0 169 263 -3 c258 -3 262 -3 296 -27 67 -48 68 -55 86 -581 8 -261 19 -612 25 -780 5 -168 17 -525 25 -795 9 -269 22 -671 29 -893 8 -221 11 -417 7 -435 -10 -42 -34 -88 -58 -109 -55 -50 21 -48 -1613 -48 -1634 0 -1558 -2 -1613 48 -24 21 -48 67 -58 109 -4 18 -1 214 7 435 7 222 20 621 29 888 69 2178 64 2050 84 2095 38 86 69 94 359 95 l232 0 0 -160z m258 -253 c22 -20 29 -66 16 -102 -8 -19 -55 -45 -84 -45 -12 0 -35 13 -51 29 -47 47 -36 110 24 136 37 16 63 11 95 -18z m1489 1 c57 -52 13 -148 -67 -148 -32 0 -80 53 -80 87 0 34 26 69 60 82 31 12 58 5 87 -21z"
       id="path2" />
    <path
       d="M5331 1309 c-114 -21 -206 -124 -218 -243 -12 -112 38 -235 161 -406 131 -180 169 -188 386 -79 230 115 330 227 330 370 0 84 -16 132 -63 185 -59 68 -107 89 -197 88 -42 0 -85 -6 -99 -13 -21 -12 -26 -10 -60 22 -68 67 -149 92 -240 76z m121 -187 c18 -16 29 -40 34 -69 4 -29 14 -50 32 -63 39 -32 69 -25 117 25 64 66 121 72 171 18 18 -20 24 -37 24 -73 0 -63 -37 -113 -127 -173 -67 -45 -230 -124 -237 -116 -2 2 -32 42 -66 89 -115 155 -153 271 -110 338 24 38 74 63 110 55 14 -3 37 -17 52 -31z"
       id="path4" />
  </g>
</svg>
