<?xml version="1.0" encoding="UTF-8" standalone="no"?>
<svg
   version="1.0"
   width="1024.000000pt"
   height="1024.000000pt"
   viewBox="0 0 1024.000000 1024.000000"
   preserveAspectRatio="xMidYMid meet"
   id="svg36"
   sodipodi:docname="8bb4bd06be8ea58ad9fcf46bc8ce6eb3.svg"
   xmlns:inkscape="http://www.inkscape.org/namespaces/inkscape"
   xmlns:sodipodi="http://sodipodi.sourceforge.net/DTD/sodipodi-0.dtd"
   xmlns="http://www.w3.org/2000/svg"
   xmlns:svg="http://www.w3.org/2000/svg">
  <defs
     id="defs40" />
  <sodipodi:namedview
     id="namedview38"
     pagecolor="#ffffff"
     bordercolor="#666666"
     borderopacity="1.0"
     inkscape:pageshadow="2"
     inkscape:pageopacity="0.0"
     inkscape:pagecheckerboard="0"
     inkscape:document-units="pt" />
  <g
     transform="translate(0.000000,1024.000000) scale(0.100000,-0.100000)"
     fill="#000000"
     stroke="none"
     id="g34">
    <path
       d="M5059 7666 c-116 -33 -179 -128 -179 -273 l0 -63 45 0 c43 0 45 -1 45 -30 0 -26 -3 -30 -29 -30 -56 0 -61 -6 -61 -81 0 -66 1 -70 27 -80 14 -5 32 -8 40 -5 7 3 13 0 13 -7 0 -7 3 -22 6 -34 6 -22 3 -23 -44 -23 -40 0 -57 6 -82 26 l-31 26 -62 -17 c-91 -24 -156 -49 -251 -96 l-85 -42 25 -19 c13 -11 24 -28 24 -40 0 -11 5 -18 13 -15 13 4 14 21 3 48 -5 10 -2 16 9 16 9 0 14 -6 11 -12 -2 -7 0 -18 4 -25 7 -11 11 -11 24 -1 9 7 13 17 10 22 -3 5 2 12 11 16 10 3 20 1 24 -4 4 -7 24 -2 56 12 45 20 151 53 228 69 l27 6 0 -68 c0 -38 5 -84 11 -103 20 -59 71 -117 127 -145 l52 -26 0 -344 c0 -192 -4 -344 -9 -344 -5 0 -69 -9 -142 -21 -74 -11 -177 -27 -229 -34 -52 -8 -140 -21 -195 -30 -55 -8 -158 -24 -230 -35 -71 -11 -202 -31 -290 -45 -88 -13 -163 -25 -167 -25 -18 0 8 176 44 295 83 276 273 544 489 691 38 26 67 50 64 52 -3 3 -19 5 -37 5 -18 -1 -27 1 -20 4 11 4 18 63 6 63 -3 0 -40 -26 -82 -59 -263 -201 -435 -457 -525 -781 -12 -41 -47 -255 -47 -285 0 -2 -26 -6 -57 -10 -86 -10 -120 -23 -127 -48 -3 -12 -6 -116 -6 -230 l0 -209 34 -39 c18 -22 36 -54 40 -71 9 -45 -10 -101 -44 -131 l-30 -27 0 -191 c0 -220 -5 -208 110 -259 286 -127 752 -347 752 -355 -1 -5 -36 -17 -79 -27 -85 -20 -313 -74 -493 -118 -63 -15 -169 -40 -236 -55 -137 -32 -157 -43 -156 -82 1 -48 70 -242 128 -362 257 -536 764 -904 1352 -982 112 -15 352 -15 464 0 671 89 1225 551 1443 1204 42 125 46 162 20 181 -10 7 -72 25 -139 41 -67 15 -155 36 -196 46 -93 23 -346 83 -460 110 -140 32 -163 40 -154 49 8 7 399 189 724 336 141 64 140 62 139 183 -1 60 -6 110 -14 125 -11 20 -11 25 1 30 23 9 19 143 -6 181 -27 40 -27 121 0 155 18 23 20 42 20 250 0 124 -3 235 -6 247 -7 25 -41 38 -126 48 -32 4 -58 8 -58 10 0 30 -35 244 -47 285 -71 254 -194 469 -373 648 -103 103 -273 229 -278 206 -3 -12 -7 -12 -17 -4 -15 12 -35 6 -35 -10 0 -5 11 -12 24 -16 28 -7 38 -24 26 -44 -6 -10 13 -29 68 -70 270 -198 457 -503 517 -844 17 -98 19 -136 8 -136 -5 0 -80 12 -168 25 -88 14 -218 34 -290 45 -71 11 -175 27 -230 35 -55 9 -143 22 -195 30 -52 7 -155 23 -229 34 -73 12 -137 21 -142 21 -5 0 -9 153 -9 345 l0 344 43 19 c74 33 131 104 143 181 6 39 5 43 -12 39 -15 -3 -19 -12 -19 -41 0 -28 -4 -37 -17 -37 -13 0 -15 5 -9 28 10 36 4 52 -21 52 -17 0 -20 -5 -16 -40 2 -25 -1 -40 -7 -40 -7 0 -22 -11 -35 -25 -79 -84 -212 -41 -241 80 -7 30 -7 30 -8 -7 -1 -21 4 -39 12 -41 7 -3 5 -6 -5 -6 -14 -1 -18 8 -20 42 -2 60 1 82 12 85 6 2 10 103 10 260 0 230 2 261 18 291 35 65 118 88 189 54 58 -27 73 -63 73 -176 0 -64 5 -110 15 -134 8 -19 15 -50 15 -68 0 -18 -7 -49 -15 -68 -9 -22 -15 -67 -15 -112 0 -68 2 -75 19 -75 11 0 22 -4 25 -9 4 -5 17 -4 31 2 20 10 25 19 25 50 0 36 1 37 28 31 107 -24 208 -56 265 -86 12 -6 23 -5 33 3 23 19 64 2 70 -29 7 -36 74 -71 74 -38 0 8 -12 17 -26 20 -33 9 -30 48 5 56 19 4 9 12 -63 48 -133 65 -191 85 -215 73 -51 -28 -140 -4 -184 48 -21 26 -27 43 -27 81 0 51 16 100 33 100 5 0 8 46 6 113 -4 100 -7 117 -31 158 -34 58 -88 99 -152 116 -58 15 -57 15 -117 -1z m-138 -723 c5 -83 3 -113 -7 -113 -7 0 -14 21 -16 48 -5 53 0 82 13 82 5 0 9 -8 10 -17z m304 -1063 c33 -6 164 -26 290 -46 127 -19 273 -42 325 -50 52 -8 140 -21 195 -29 55 -8 156 -24 225 -34 69 -11 175 -27 235 -35 61 -9 116 -19 123 -21 9 -3 12 -51 12 -195 0 -183 1 -190 20 -190 16 0 20 -7 20 -30 0 -23 -4 -30 -20 -30 -18 0 -20 -7 -20 -79 0 -61 3 -80 15 -85 8 -3 15 -17 15 -31 0 -16 -6 -25 -15 -25 -13 0 -15 -25 -15 -168 l0 -168 -27 -11 c-52 -21 -228 -100 -336 -152 -60 -28 -110 -51 -112 -51 -1 0 -45 -20 -96 -44 -160 -74 -232 -108 -289 -133 -99 -44 -144 -65 -240 -110 -193 -91 -400 -183 -410 -183 -10 0 -217 92 -410 183 -96 45 -141 66 -240 110 -57 25 -129 59 -289 133 -51 24 -95 44 -96 44 -2 0 -52 23 -112 51 -108 52 -284 131 -335 152 -26 11 -28 15 -28 74 0 35 -3 63 -7 63 -5 0 -8 17 -8 37 0 32 -4 39 -24 41 -22 3 -23 1 -19 -37 3 -36 1 -41 -17 -40 -11 0 -14 3 -7 6 6 2 12 20 12 39 0 20 -5 34 -12 35 -7 1 1 5 17 8 17 4 38 4 48 -1 16 -8 17 14 17 387 0 308 3 397 13 400 6 2 62 12 122 21 61 8 166 24 235 35 69 10 170 26 225 34 55 8 143 21 195 29 52 8 201 31 330 51 129 20 255 40 280 45 65 11 146 11 215 0z m1458 -1000 c8 0 7 -3 -2 -9 -9 -6 -12 -21 -9 -45 2 -20 0 -36 -4 -36 -4 0 -8 18 -8 40 0 22 -5 40 -10 40 -6 0 -5 8 2 20 10 17 14 18 16 5 2 -8 9 -15 15 -15z m-2125 -750 c18 -11 387 -179 465 -212 l47 -21 0 -319 0 -320 23 6 c12 3 34 6 50 6 l27 0 0 314 0 313 48 21 c78 33 446 201 465 212 12 8 94 -8 310 -59 525 -125 722 -173 730 -181 11 -10 -64 -214 -119 -323 -109 -215 -310 -453 -495 -584 -101 -72 -238 -153 -257 -153 -7 0 -12 -8 -11 -17 1 -10 1 -24 0 -30 -1 -16 -58 -17 -63 -3 -2 7 -17 5 -41 -5 -91 -38 -284 -85 -415 -102 -78 -9 -144 -15 -147 -11 -3 3 -6 76 -6 162 l-1 156 -26 0 c-15 0 -37 3 -49 6 -22 6 -23 4 -23 -55 0 -54 2 -61 20 -61 11 0 20 -4 20 -10 0 -5 -4 -10 -8 -10 -15 0 -32 -67 -32 -128 l0 -62 -30 0 c-98 0 -339 46 -463 89 -45 16 -58 17 -54 7 3 -8 -2 -16 -14 -19 -20 -5 -26 7 -9 18 17 11 11 23 -16 29 -14 4 -31 2 -38 -3 -7 -6 -34 -10 -62 -9 -27 0 -43 3 -36 5 6 3 12 17 12 33 0 24 -10 34 -72 71 -293 173 -508 401 -657 696 -51 100 -125 303 -114 313 7 7 137 39 783 194 262 63 236 59 258 46z"
       id="path2" />
    <path
       d="M5087 5682 c-16 -17 -17 -83 -17 -739 0 -685 1 -721 18 -736 24 -22 45 -21 65 1 16 17 17 83 17 739 0 685 -1 721 -18 736 -24 22 -45 21 -65 -1z"
       id="path4" />
    <path
       d="M4556 5604 c-14 -14 -16 -79 -16 -570 0 -364 4 -562 10 -575 15 -27 56 -24 75 5 14 20 15 91 13 575 -3 534 -4 553 -22 567 -25 18 -41 18 -60 -2z"
       id="path6" />
    <path
       d="M5620 5600 c-20 -20 -20 -33 -20 -565 0 -391 3 -551 12 -570 14 -31 62 -35 78 -6 6 13 10 211 10 575 0 491 -2 556 -16 570 -21 21 -40 20 -64 -4z"
       id="path8" />
    <path
       d="M4026 5524 c-13 -13 -16 -43 -16 -172 l0 -156 45 44 45 44 0 118 c0 106 -2 118 -19 128 -27 14 -37 13 -55 -6z"
       id="path10" />
    <path
       d="M6158 5529 c-17 -9 -18 -36 -18 -330 0 -230 3 -325 12 -338 9 -15 9 -25 0 -46 -15 -34 -15 -108 0 -123 31 -31 78 -3 78 47 0 16 -6 21 -27 21 -24 0 -25 1 -9 13 17 12 17 15 -1 52 -10 22 -22 43 -28 47 -5 4 0 8 13 8 13 0 21 -3 19 -7 -3 -5 -1 -18 4 -31 17 -44 29 -11 29 76 l-1 87 -39 18 c-44 21 -49 35 -21 61 15 14 24 15 40 6 20 -10 21 -8 21 49 0 52 -3 63 -23 76 -56 36 -61 99 -12 151 31 32 35 43 35 90 0 72 -28 99 -72 73z"
       id="path12" />
    <path
       d="M4082 5178 c-16 -16 -15 -33 3 -48 13 -11 15 -7 15 24 0 40 -1 41 -18 24z"
       id="path14" />
    <path
       d="M4010 4992 c0 -102 2 -111 20 -117 11 -3 20 -15 20 -26 0 -12 -7 -19 -20 -19 -12 0 -20 -7 -20 -16 0 -14 3 -14 15 -4 9 7 18 10 21 7 3 -3 -3 -12 -15 -19 -23 -14 -29 -65 -11 -99 12 -21 50 -25 68 -7 18 18 16 98 -3 98 -8 0 -15 7 -15 16 0 14 3 14 15 4 12 -10 15 -9 15 4 0 9 -7 19 -15 22 -8 4 -15 15 -15 25 0 11 7 22 15 25 11 5 15 22 14 73 -1 65 -1 67 -45 105 l-44 39 0 -111z"
       id="path16" />
    <path
       d="M4010 4855 c0 -8 5 -15 10 -15 6 0 10 7 10 15 0 8 -4 15 -10 15 -5 0 -10 -7 -10 -15z"
       id="path18" />
    <path
       d="M4080 4860 c0 -5 4 -10 9 -10 6 0 13 5 16 10 3 6 -1 10 -9 10 -9 0 -16 -4 -16 -10z"
       id="path20" />
    <path
       d="M6221 4784 c0 -11 3 -14 6 -6 3 7 2 16 -1 19 -3 4 -6 -2 -5 -13z"
       id="path22" />
    <path
       d="M5086 3184 c-10 -9 -16 -33 -16 -59 0 -50 24 -75 72 -75 l28 0 0 75 0 75 -34 0 c-19 0 -42 -7 -50 -16z"
       id="path24" />
    <path
       d="M4370 2817 c0 -22 26 -39 50 -32 25 8 26 21 3 28 -10 2 -26 8 -35 12 -13 5 -18 3 -18 -8z"
       id="path26" />
    <path
       d="M5797 2803 c-13 -12 -7 -23 13 -23 11 0 20 7 20 15 0 15 -21 21 -33 8z"
       id="path28" />
    <path
       d="M4373 6894 c-8 -21 9 -48 32 -53 26 -5 47 26 34 50 -12 23 -57 25 -66 3z"
       id="path30" />
    <path
       d="M5710 6895 c27 -14 36 -13 25 4 -3 6 -16 11 -28 11 -21 -1 -21 -1 3 -15z"
       id="path32" />
  </g>
</svg>
